<?xml version="1.0" encoding="utf-8"?>
<!-- Generator: Adobe Illustrator 18.0.0, SVG Export Plug-In . SVG Version: 6.00 Build 0)  -->
<!DOCTYPE svg PUBLIC "-//W3C//DTD SVG 1.1//EN" "http://www.w3.org/Graphics/SVG/1.1/DTD/svg11.dtd">
<svg version="1.1" id="Слой_1" xmlns="http://www.w3.org/2000/svg" xmlns:xlink="http://www.w3.org/1999/xlink" x="0px" y="0px"
	 viewBox="0 0 443 218" enable-background="new 0 0 443 218" xml:space="preserve">
<title>Group 6</title>
<desc>Created with Sketch.</desc>
<g id="Tablet" transform="translate(-229.000000, -341.000000)">
	<g id="Group-6" transform="translate(229.000000, 343.000000)">
		
			<linearGradient id="SVGID_1_" gradientUnits="userSpaceOnUse" x1="-197.6712" y1="403.9061" x2="-197.4499" y2="403.8958" gradientTransform="matrix(214.4964 0 0 -214 42587.2305 86541.9219)">
			<stop  offset="0" style="stop-color:#07B0FF"/>
			<stop  offset="1" style="stop-color:#0378FF"/>
		</linearGradient>
		<path fill="url(#SVGID_1_)" d="M315.5,125.1c-0.9,0-1.8-0.1-2.7-0.2c-0.2,1.4-0.5,2.8-0.8,4.2c-10.2,47.5-52.6,83.3-103.3,83.3
			c-46.8,0-86.5-30.5-100.4-72.5c-0.7-2-1.2-3.9-1.8-5.9c-1.1,0.1-2.1,0.2-3.2,0.3c0.5,2.1,1.1,4.1,1.8,6.1
			c14.1,43.7,55.2,75.3,103.6,75.3c52.3,0,96.2-37,106.5-86.2c0.3-1.4,0.6-2.8,0.8-4.3C315.8,125.1,315.7,125.1,315.5,125.1z
			 M108.3,74.1c13.9-42.1,53.6-72.5,100.4-72.5c50.1,0,92.2,35,103,81.7c0.3,1.4,0.6,2.8,0.9,4.2c1-0.1,1.9-0.2,2.9-0.2
			c0.1,0,0.2,0,0.3,0c-0.3-1.4-0.5-2.9-0.9-4.3c-11-48.4-54.4-84.7-106.2-84.7c-48.4,0-89.5,31.7-103.6,75.3c-0.7,2-1.2,4-1.8,6.1
			c1.1,0,2.2,0.1,3.2,0.3C107.1,78.1,107.7,76.1,108.3,74.1z"/>
		<path id="holo-copy" fill="#FFFFFF" d="M208.8,73.6c-18.7,0-33.7,14.4-33.7,33.3c0,18.9,15,33.4,33.7,33.4
			c18.6,0,33.6-14.4,33.6-33.4C242.4,88.1,227.4,73.6,208.8,73.6z M208.8,134.2c-15.2,0-27.1-12-27.1-27.2
			c0-15.2,11.9-27.2,27.1-27.2c15.2,0,27,12,27,27.2C235.9,122.2,224.1,134.2,208.8,134.2z M152.4,45.7v93.3h6.4V45.7H152.4z
			 M108.3,74.1c-1.1-0.2-2.2-0.3-3.2-0.4c-0.8-0.1-1.7-0.1-2.5-0.1c-18.7,0-33.7,14.4-33.7,33.3c0,18.9,15,33.4,33.7,33.4
			c0.8,0,1.7,0,2.5-0.1c1.1-0.1,2.2-0.2,3.2-0.4c15.8-2.6,27.8-16,27.8-32.9C136.1,90.1,124.1,76.7,108.3,74.1z M106.5,133.9
			c-1.1,0.1-2.1,0.2-3.2,0.3c-0.2,0-0.5,0-0.7,0c-15.2,0-27.2-12-27.2-27.2c0-15.2,11.9-27.2,27.2-27.2c0.2,0,0.5,0,0.7,0
			c1.1,0,2.2,0.1,3.2,0.3c13.3,1.9,23,13.1,23,26.9C129.6,120.9,119.8,132.1,106.5,133.9z M29.4,73.6c-9.9,0-18,4.1-22.9,13.5V49.5
			H0.1v89.4h6.4v-33.7c0-17.2,9.9-25.4,22.4-25.4c12,0,18.8,7.7,18.8,19.4v39.7h6.5V99.2C54.2,83.7,44.6,73.6,29.4,73.6z"/>
		
			<linearGradient id="one-copy_1_" gradientUnits="userSpaceOnUse" x1="-196.6774" y1="400.7207" x2="-197.611" y2="400.7207" gradientTransform="matrix(150.4677 0 0 -46.3134 30035.9941 18664.9551)">
			<stop  offset="0" style="stop-color:#07B0FF"/>
			<stop  offset="1" style="stop-color:#0378FF"/>
		</linearGradient>
		<path id="one-copy" fill="url(#one-copy_1_)" d="M442.4,106.4c0-12.2-8.5-23.3-22.1-23.3c-13.7,0-23.2,10.1-23.2,23.2
			c0,13.4,9.8,23.2,23.5,23.2c8.9,0,15.8-4,19.5-10l-3.9-2.3c-2.6,4.7-8.1,8.1-15.5,8.1c-10.2,0-17.9-6.6-19-16.6h40.5
			C442.3,107.8,442.4,107.1,442.4,106.4z M401.8,104.2c0.9-9.8,8.3-16.9,18.5-16.9c8.8,0,16.5,6,17.5,16.9H401.8z M370.2,83
			c-6.9,0-12.6,2.8-16,9.4V84h-4.5v44.4h4.5V105c0-12,6.9-17.7,15.7-17.7c8.4,0,13.2,5.3,13.2,13.5v27.6h4.6v-27.6
			C387.5,90.1,380.8,83,370.2,83z M315.5,83c-0.2,0-0.4,0-0.6,0c-1.1,0-2.2,0.1-3.2,0.3c-11.2,1.7-19.7,11-19.7,22.9
			c0,11.9,8.7,21.3,20.1,22.9c1,0.2,2.1,0.2,3.2,0.2c0.1,0,0.2,0,0.3,0c13,0,23.5-10,23.5-23.2S328.5,83,315.5,83z M316,125.1
			c-0.2,0-0.4,0-0.6,0c-0.9,0-1.8-0.1-2.7-0.2c-9.3-1.2-16.3-9.1-16.3-18.7c0-9.6,6.8-17.3,16-18.7c1-0.1,1.9-0.2,2.9-0.2
			c0.1,0,0.2,0,0.3,0c10.5,0.1,18.6,8.4,18.6,18.9C334.4,116.6,326.4,124.8,316,125.1z"/>
	</g>
</g>
</svg>
